<?xml version="1.0" encoding="iso-8859-1"?>
<!-- Generator: Adobe Illustrator 16.0.0, SVG Export Plug-In . SVG Version: 6.00 Build 0)  -->
<!DOCTYPE svg PUBLIC "-//W3C//DTD SVG 1.1//EN" "http://www.w3.org/Graphics/SVG/1.1/DTD/svg11.dtd">
<svg version="1.1" id="&#x56FE;&#x5C42;_1" xmlns="http://www.w3.org/2000/svg" xmlns:xlink="http://www.w3.org/1999/xlink" x="0px"
	 y="0px" width="283.46px" height="141.73px" viewBox="0 0 283.46 141.73" style="enable-background:new 0 0 283.46 141.73;"
	 xml:space="preserve">
<g>
	<path style="fill:#E60012;" d="M88.368,63.391h10.251l2.382-9.186c0,0,1.145-5.273-5.319-6.634H67.445
		c0,0-6.748-0.454-10.376,7.132l-9.355,26.378c0,0-4.593,13.313,6.634,13.993h26.025c0,0,6.294,0.125,10.036-8.209l6.293-17.861
		H72.967l-2.676,8.391h12.247c0,0,1.52,0.002,1.747,0.908l-2.495,6.011c0,0-0.567,0.907-2.268,0.907c-1.701,0-17.872,0-17.872,0
		s-5.216,0.68-3.742-5.33l5.964-17.123c0,0,0.454-4.424,6.691-4.537h16.103c0,0,2.948-0.295,2.495,1.406
		S88.368,63.391,88.368,63.391z"/>
	<g>
		<polygon style="fill:#0081CC;" points="108.122,69.117 102.339,80.911 112.567,80.911 118.192,69.117 		"/>
		<polygon style="fill:#0081CC;" points="176.593,48.259 167.407,48.259 163.378,54.443 172.405,54.443 		"/>
		<polygon style="fill:#0081CC;" points="140.839,60.834 136.811,66.688 152.772,66.688 154.974,61.018 		"/>
		<polygon style="fill:#0081CC;" points="155.148,60.565 157.337,54.926 145.015,54.766 141.023,60.565 		"/>
		<polygon style="fill:#0081CC;" points="142.46,48.259 132.82,48.259 130.534,54.443 139.714,54.443 		"/>
		<polygon style="fill:#0081CC;" points="159.923,48.259 149.491,48.259 145.236,54.443 157.523,54.443 		"/>
		<polygon style="fill:#0081CC;" points="168.26,60.565 171.95,55.115 163.016,54.999 159.388,60.565 		"/>
		<polygon style="fill:#0081CC;" points="159.06,61.07 155.397,66.688 164.114,66.688 167.841,61.184 		"/>
		<polygon style="fill:#0081CC;" points="140.07,73.069 123.727,72.857 121.479,78.934 136.198,78.934 		"/>
		<polygon style="fill:#0081CC;" points="136.898,60.782 128.231,60.67 126.007,66.688 134.276,66.688 		"/>
		<polygon style="fill:#0081CC;" points="135.089,92.138 146.882,92.138 155.512,79.393 140.292,79.195 		"/>
		<polygon style="fill:#0081CC;" points="142.741,73.104 140.397,78.934 155.822,78.934 159.621,73.322 		"/>
		<polygon style="fill:#0081CC;" points="142.006,70.138 143.934,70.138 142.858,72.811 159.968,72.811 163.731,67.254
			155.103,67.142 151.599,72.52 150.511,72.52 152.609,67.109 136.663,66.902 133.501,71.498 132.14,71.498 134.195,66.871
			125.979,66.764 123.743,72.811 140.241,72.811 		"/>
		<polygon style="fill:#0081CC;" points="139.602,54.695 130.485,54.576 128.271,60.565 136.995,60.565 		"/>
		<polygon style="fill:#0081CC;" points="116.809,91.57 127.854,91.57 136.062,79.141 121.474,78.951 		"/>
		<polygon style="fill:#0081CC;" points="168.522,73.438 165.645,78.934 177.192,78.934 179.929,73.586 		"/>
		<polygon style="fill:#0081CC;" points="192.717,48.592 181.536,48.592 178.472,54.443 189.724,54.443 		"/>
		<polygon style="fill:#0081CC;" points="186.152,61.422 174.894,61.275 172.058,66.688 183.458,66.688 		"/>
		<polygon style="fill:#0081CC;" points="183.041,67.504 171.708,67.357 168.852,72.811 180.325,72.811 		"/>
		<polygon style="fill:#0081CC;" points="158.907,91.798 170.611,91.798 176.816,79.669 165.338,79.52 		"/>
		<polygon style="fill:#0081CC;" points="186.591,60.565 189.265,55.34 178.078,55.194 175.265,60.565 		"/>
		<polygon style="fill:#0081CC;" points="191.704,66.688 203.104,66.688 205.67,61.675 194.407,61.529 		"/>
		<polygon style="fill:#0081CC;" points="188.498,72.811 199.972,72.811 202.558,67.758 191.222,67.61 		"/>
		<polygon style="fill:#0081CC;" points="196.307,79.976 196.334,79.922 184.852,79.773 178.554,91.798 185.835,91.798
			190.258,91.798 202.164,91.798 207.984,80.074 200.433,79.976 		"/>
		<polygon style="fill:#0081CC;" points="206.237,60.565 208.781,55.593 197.592,55.447 194.911,60.565 		"/>
		<polygon style="fill:#0081CC;" points="188.037,73.691 185.291,78.934 196.84,78.934 199.446,73.84 		"/>
		<polygon style="fill:#0081CC;" points="212.363,48.592 201.183,48.592 198.118,54.443 209.37,54.443 		"/>
		<polygon style="fill:#0081CC;" points="220.282,66.688 231.682,66.688 234.059,62.043 222.791,61.896 		"/>
		<polygon style="fill:#0081CC;" points="225.977,55.816 223.488,60.565 234.814,60.565 237.17,55.961 		"/>
		<polygon style="fill:#0081CC;" points="213.868,78.934 225.417,78.934 227.835,74.208 216.421,74.061 		"/>
		<polygon style="fill:#0081CC;" points="240.94,48.592 229.76,48.592 226.695,54.443 237.947,54.443 		"/>
		<polygon style="fill:#0081CC;" points="217.075,72.811 228.55,72.811 230.946,68.126 219.606,67.979 		"/>
		<polygon style="fill:#0081CC;" points="207.131,91.798 214.411,91.798 218.835,91.798 230.741,91.798 236.378,80.441
			213.235,80.142 		"/>
	</g>
</g>
</svg>
